<?xml version="1.0" encoding="UTF-8" standalone="no" ?>
<!DOCTYPE svg PUBLIC "-//W3C//DTD SVG 1.1//EN" "http://www.w3.org/Graphics/SVG/1.1/DTD/svg11.dtd">
<svg xmlns="http://www.w3.org/2000/svg" xmlns:xlink="http://www.w3.org/1999/xlink" version="1.1" width="500" height="500" viewBox="0 0 500 500" xml:space="preserve">
<desc>Created with Fabric.js 5.3.0</desc>
<defs>
</defs>
<g transform="matrix(2.78449875 0 0 2.6900188889 240 248.9154384314)" id="Jmjf22jGzLjxSHkgPS6ID"  >
<path style="stroke: rgb(0,0,0); stroke-width: 1; stroke-dasharray: none; stroke-linecap: butt; stroke-dashoffset: 0; stroke-linejoin: miter; stroke-miterlimit: 4; fill: rgb(255,255,255); fill-rule: nonzero; opacity: 1;"  transform=" translate(0, 0)" d="M -40 70 L -20 90 L 40 -30 C 40 -30 39.63964 -90 0 -90 C -39.63964 -90 -40 -30 -40 -30 L 20 90 L 40 70 L -10.570790000000002 -30 C -10.570790000000002 -30 -11.052630000000002 -70 -1.7763568394002505e-15 -70 C 11.052629999999999 -70 12.060789999999999 -30 12.060789999999999 -30 z" stroke-linecap="round" />
</g>
<g transform="matrix(1 0 0 1 139.3652433425 450.1779155188)" id="21Ez66snOndzP1Jh0gYBM"  >
<path style="stroke: rgb(0,0,0); stroke-width: 1; stroke-dasharray: none; stroke-linecap: butt; stroke-dashoffset: 0; stroke-linejoin: miter; stroke-miterlimit: 4; fill: rgb(255,255,255); fill-opacity: 0; fill-rule: nonzero; opacity: 1;"  transform=" translate(0, 0)" d="M 0 0" stroke-linecap="round" />
</g>
<g transform="matrix(1 0 0 1 396.4852627841 714.0045127685)" id="4z-B0W4eanJRFx4FfAB65"  >
<path style="stroke: rgb(0,0,0); stroke-width: 1; stroke-dasharray: none; stroke-linecap: butt; stroke-dashoffset: 0; stroke-linejoin: miter; stroke-miterlimit: 4; fill: rgb(255,255,255); fill-opacity: 0; fill-rule: nonzero; opacity: 1;"  transform=" translate(-0.000005, -0.000005)" d="M -26.95312 -25.08907 L 26.95313 25.089080000000003" stroke-linecap="round" />
</g>
<g transform="matrix(1 0 0 1 220.9486721176 266.29191535)" id="dh1OMcgT0X4Sq_aZDk0VP"  >
<path style="stroke: rgb(255,255,255); stroke-width: 5; stroke-dasharray: none; stroke-linecap: butt; stroke-dashoffset: 0; stroke-linejoin: miter; stroke-miterlimit: 4; fill: rgb(255,255,255); fill-opacity: 0; fill-rule: nonzero; opacity: 1;"  transform=" translate(0, 0)" d="M -19.05133 36.66667 L 19.05133 -36.66666" stroke-linecap="round" />
</g>
<g transform="matrix(1.0043889107 0 0 1.0043889107 261.7397389636 264.9758364111)" id="8_1rLXyzsHiCHUWjCFD-2"  >
<path style="stroke: rgb(255,255,255); stroke-width: 4; stroke-dasharray: none; stroke-linecap: butt; stroke-dashoffset: 0; stroke-linejoin: miter; stroke-miterlimit: 4; fill: rgb(255,255,255); fill-opacity: 0; fill-rule: nonzero; opacity: 1;"  transform=" translate(0, 0)" d="M 18.34957 35.18738 L -18.349580000000003 -35.18737000000001" stroke-linecap="round" />
</g>
<g transform="matrix(1 0 0 1 219.9675196738 344.2863085522)" id="4jdwKd1YFzoRbRFl-w-es"  >
<path style="stroke: rgb(255,255,255); stroke-width: 4; stroke-dasharray: none; stroke-linecap: butt; stroke-dashoffset: 0; stroke-linejoin: miter; stroke-miterlimit: 4; fill: rgb(255,255,255); fill-opacity: 0; fill-rule: nonzero; opacity: 1;"  transform=" translate(0, 0)" d="M -18.07018 -35.71369 L 18.070169999999997 35.71369" stroke-linecap="round" />
</g>
<g transform="matrix(1 0 0 1 261.4318977255 342.7431311087)" id="Mlvy0OyVDxJc96cy2ImSA"  >
<path style="stroke: rgb(255,255,255); stroke-width: 5; stroke-dasharray: none; stroke-linecap: butt; stroke-dashoffset: 0; stroke-linejoin: miter; stroke-miterlimit: 4; fill: rgb(255,255,255); fill-opacity: 0; fill-rule: nonzero; opacity: 1;"  transform=" translate(0, 0)" d="M -18.5681 35.78947 L 18.5681 -35.789480000000005" stroke-linecap="round" />
</g>
<g transform="matrix(1 0 0 1 242.2636107787 227.8246946668)" id="ngb3rcLJsPymox645_2Jd"  >
<path style="stroke: rgb(255,255,255); stroke-width: 1; stroke-dasharray: none; stroke-linecap: butt; stroke-dashoffset: 0; stroke-linejoin: miter; stroke-miterlimit: 4; fill: rgb(255,255,255); fill-opacity: 0; fill-rule: nonzero; opacity: 1;"  transform=" translate(0, 0)" d="M -10.70175 0.17544 L 10.70176 -0.17544" stroke-linecap="round" />
</g>
<g transform="matrix(1 0 0 1 260.6846634103 226.5966244913)" id="rlWWIeR6zUZ_VJT9SYNrW"  >
<path style="stroke: rgb(255,255,255); stroke-width: 3; stroke-dasharray: none; stroke-linecap: butt; stroke-dashoffset: 0; stroke-linejoin: miter; stroke-miterlimit: 4; fill: rgb(255,255,255); fill-opacity: 0; fill-rule: nonzero; opacity: 1;"  transform=" translate(0, 0)" d="M -22.45614 3.15789 L -14.73684 1.75438 L 22.456139999999998 -3.1578999999999997" stroke-linecap="round" />
</g>
<g transform="matrix(1 0 0 1 202.4475948631 303.965045544)" id="ytQ1i5u3sOzHx3LdaYqUL"  >
<path style="stroke: rgb(255,255,255); stroke-width: 4; stroke-dasharray: none; stroke-linecap: butt; stroke-dashoffset: 0; stroke-linejoin: miter; stroke-miterlimit: 4; fill: rgb(255,255,255); fill-opacity: 0; fill-rule: nonzero; opacity: 1;"  transform=" translate(0, 0)" d="M -1.39496 8.94737 L 1.39497 -8.94737" stroke-linecap="round" />
</g>
<g transform="matrix(1 0 0 1 237.8776458665 381.8597823861)" id="w3C4LFSsn23H4jbfgd3ku"  >
<path style="stroke: rgb(255,255,255); stroke-width: 4; stroke-dasharray: none; stroke-linecap: butt; stroke-dashoffset: 0; stroke-linejoin: miter; stroke-miterlimit: 4; fill: rgb(255,255,255); fill-opacity: 0; fill-rule: nonzero; opacity: 1;"  transform=" translate(0, 0)" d="M -2.45614 2.98246 L 2.45614 -2.9824499999999996" stroke-linecap="round" />
</g>
<g transform="matrix(1 0 0 1 242.6144879717 380.6317122106)" id="pdYS7Nh60hutfPpBgHx32"  >
<path style="stroke: rgb(255,255,255); stroke-width: 5; stroke-dasharray: none; stroke-linecap: butt; stroke-dashoffset: 0; stroke-linejoin: miter; stroke-miterlimit: 4; fill: rgb(255,255,255); fill-opacity: 0; fill-rule: nonzero; opacity: 1;"  transform=" translate(0, 0)" d="M 2.63158 2.45614 L -2.63158 -2.45614" stroke-linecap="round" />
</g>
<g transform="matrix(1 0 0 1 279.1395726131 308.1078587172)" id="EkT6o1p3sTfZWZlGHQ2ib"  >
<path style="stroke: rgb(255,255,255); stroke-width: 5; stroke-dasharray: none; stroke-linecap: butt; stroke-dashoffset: 0; stroke-linejoin: miter; stroke-miterlimit: 4; fill: rgb(255,255,255); fill-opacity: 0; fill-rule: nonzero; opacity: 1;"  transform=" translate(0, 0)" d="M 1.75439 6.84211 L -1.7543800000000003 -6.8421" stroke-linecap="round" />
</g>
</svg>