<?xml version="1.0" encoding="UTF-8" standalone="no" ?>
<!DOCTYPE svg PUBLIC "-//W3C//DTD SVG 1.1//EN" "http://www.w3.org/Graphics/SVG/1.1/DTD/svg11.dtd">
<svg xmlns="http://www.w3.org/2000/svg" xmlns:xlink="http://www.w3.org/1999/xlink" version="1.1" width="500" height="500" viewBox="0 0 500 500" xml:space="preserve">
<desc>Created with Fabric.js 5.3.0</desc>
<defs>
</defs>
<g transform="matrix(1.9553620758 0 0 1.9553620758 250.3774642376 333.3635087527)" id="hTqEgwoHHDU3ccx0AsSbp"  >
<path style="stroke: rgb(0,0,0); stroke-width: 1; stroke-dasharray: none; stroke-linecap: butt; stroke-dashoffset: 0; stroke-linejoin: miter; stroke-miterlimit: 4; fill: rgb(255,255,255); fill-rule: nonzero; opacity: 1;"  transform=" translate(0, 0.0000036723)" d="M -60 -70.00664 L 60 -70.00664 L 60 9.993359999999996 C 60 9.993359999999996 61.67247 68.94806 0 69.99336 C -61.67247 71.03866 -60 9.993359999999996 -60 9.993359999999996 z" stroke-linecap="round" />
</g>
<g transform="matrix(0.9776810379 0 0 1.9553620758 484.5234170491 351.9264721434)" id="Mi707mmLvVTw9ruOph44t"  >
<path style="stroke: rgb(86,112,245); stroke-width: 1; stroke-dasharray: none; stroke-linecap: butt; stroke-dashoffset: 0; stroke-linejoin: miter; stroke-miterlimit: 4; fill: rgb(255,255,255); fill-opacity: 0; fill-rule: nonzero; opacity: 1;"  transform=" translate(0, 0)" d="M 0 0 z" stroke-linecap="round" />
</g>
<g transform="matrix(1.9553620758 0 0 1.9553620758 484.0345765302 351.9264721434)" id="3h_L8_zt6yjJON_0YeTtK"  >
<path style="stroke: rgb(86,112,245); stroke-width: 1; stroke-dasharray: none; stroke-linecap: butt; stroke-dashoffset: 0; stroke-linejoin: miter; stroke-miterlimit: 4; fill: rgb(255,255,255); fill-opacity: 0; fill-rule: nonzero; opacity: 1;"  transform=" translate(0, 0)" d="M 0 0" stroke-linecap="round" />
</g>
<g transform="matrix(1.9553620758 0 0 1.9553620758 366.7128519799 508.3554382105)" id="BMLzsrOOy28alEOzSTN64"  >
<path style="stroke: rgb(86,112,245); stroke-width: 1; stroke-dasharray: none; stroke-linecap: butt; stroke-dashoffset: 0; stroke-linejoin: miter; stroke-miterlimit: 4; fill: rgb(255,255,255); fill-opacity: 0; fill-rule: nonzero; opacity: 1;"  transform=" translate(0, 0)" d="M 0 0" stroke-linecap="round" />
</g>
<g transform="matrix(1.9553620758 0 0 1.9553620758 291.5574096394 391.0337136602)" id="sKeof7_F5tAg7Ozry8GTS"  >
<path style="stroke: rgb(0,0,0); stroke-width: 1; stroke-dasharray: none; stroke-linecap: butt; stroke-dashoffset: 0; stroke-linejoin: miter; stroke-miterlimit: 4; fill: rgb(86,112,245); fill-rule: nonzero; opacity: 1;"  transform=" translate(0.0000039691, 0)" d="M -21.56444 40 C 38.62075 40 38.435559999999995 -20 38.435559999999995 -20 L 38.435559999999995 -40 C 38.435559999999995 -40 -81.74963000000001 40 -21.564440000000005 40 z" stroke-linecap="round" />
</g>
<g transform="matrix(1.9553620758 0 0 1.9553620758 366.7128519799 508.3554382105)" id="R2wGq7RSgXJksmoBJJhgP"  >
<path style="stroke: rgb(86,112,245); stroke-width: 1; stroke-dasharray: none; stroke-linecap: butt; stroke-dashoffset: 0; stroke-linejoin: miter; stroke-miterlimit: 4; fill: rgb(255,255,255); fill-opacity: 0; fill-rule: nonzero; opacity: 1;"  transform=" translate(0, 0)" d="M 0 0" stroke-linecap="round" />
</g>
<g transform="matrix(1.9553620758 0 0 2.841960893 250.3688662615 97.3596028605)" id="QEayZSoQWIqejyZGHJvf0"  >
<path style="stroke: rgb(0,0,0); stroke-width: 1; stroke-dasharray: none; stroke-linecap: butt; stroke-dashoffset: 0; stroke-linejoin: miter; stroke-miterlimit: 4; fill: rgb(255,255,255); fill-rule: nonzero; opacity: 1;"  transform=" translate(0, -0.0000043069)" d="M -60 -10.00454 L -60 9.99546 C -60 9.99546 -60.30151 29.49295 0 29.99546 C 60.30151 30.497970000000002 60 9.995460000000001 60 9.995460000000001 L 60 -10.004539999999999 C 60 -10.004539999999999 60.30151 -30.00454 0 -30.00454 C -60.30151 -30.00454 -60 -10.004539999999999 -60 -10.004539999999999 z" stroke-linecap="round" />
</g>
<g transform="matrix(1.9553620758 0 0 1.9553620758 425.1656970129 295.2209719441)" id="_oBzUnciiuOntnnGrK9Dk"  >
<path style="stroke: rgb(0,0,0); stroke-width: 1; stroke-dasharray: none; stroke-linecap: butt; stroke-dashoffset: 0; stroke-linejoin: miter; stroke-miterlimit: 4; fill: rgb(255,255,255); fill-rule: nonzero; opacity: 1;"  transform=" translate(0, 0)" d="M -20 -30 C -20 -30 -19.75806 -50 0 -50 C 19.75806 -50 20 -30 20 -30 L 20 10 C 20 10 20.08929 50 0 50 C -20.08929 50 -20 10 -20 10 z" stroke-linecap="round" />
</g>
<g transform="matrix(1.9553620758 0 0 1.9553620758 249.8790878719 100.3558346679)" id="CDkW4gHJQYpMxJ2V4OdsJ"  >
<path style="stroke: rgb(0,0,0); stroke-width: 1; stroke-dasharray: none; stroke-linecap: butt; stroke-dashoffset: 0; stroke-linejoin: miter; stroke-miterlimit: 4; fill: rgb(0,0,0); fill-rule: nonzero; opacity: 1;"  transform=" translate(0, 0)" d="M -40 -10 L -40 10 C -40 10 -40.33613 30.28011 0 30 C 40.33613 29.71989 40 10 40 10 L 40 -10 C 40 -10 39.4958 -30.28011 0 -30 C -39.4958 -29.71989 -40 -10 -40 -10 z" stroke-linecap="round" />
</g>
<g transform="matrix(1.9553620758 0 0 1.9553620758 293.9612644886 100)" id="yckDt9H2e4SQl4A_hsGDK"  >
<path style="stroke: rgb(0,0,0); stroke-width: 0; stroke-dasharray: none; stroke-linecap: butt; stroke-dashoffset: 0; stroke-linejoin: miter; stroke-miterlimit: 4; fill: rgb(86,112,245); fill-rule: nonzero; opacity: 1;"  transform=" translate(0, 0)" d="M 0 -13.31658 C 7.35075 -13.31658 13.31658 -7.35075 13.31658 0 C 13.31658 7.35075 7.35075 13.31658 0 13.31658 C -7.35075 13.31658 -13.31658 7.35075 -13.31658 0 C -13.31658 -7.35075 -7.35075 -13.31658 0 -13.31658 z" stroke-linecap="round" />
</g>
<g transform="matrix(1.9553620758 0 0 1.9553620758 206.0387355114 100)" id="WR79u0d2oDkY2qLUJEMR_"  >
<path style="stroke: rgb(0,0,0); stroke-width: 0; stroke-dasharray: none; stroke-linecap: butt; stroke-dashoffset: 0; stroke-linejoin: miter; stroke-miterlimit: 4; fill: rgb(86,112,245); fill-rule: nonzero; opacity: 1;"  transform=" translate(0, 0)" d="M 0 -13.31658 C 7.35075 -13.31658 13.31658 -7.35075 13.31658 0 C 13.31658 7.35075 7.35075 13.31658 0 13.31658 C -7.35075 13.31658 -13.31658 7.35075 -13.31658 0 C -13.31658 -7.35075 -7.35075 -13.31658 0 -13.31658 z" stroke-linecap="round" />
</g>
<g transform="matrix(-1.8796146652 0.5389708322 -0.5389708322 -1.8796146652 65.9395346337 160)" id="9Mpx9XGGKlG-CbZ1npP6c"  >
<path style="stroke: rgb(0,0,0); stroke-width: 1; stroke-dasharray: none; stroke-linecap: butt; stroke-dashoffset: 0; stroke-linejoin: miter; stroke-miterlimit: 4; fill: rgb(255,255,255); fill-rule: nonzero; opacity: 1;"  transform=" translate(0, 0)" d="M -20 -30 C -20 -30 -19.75806 -50 0 -50 C 19.75806 -50 20 -30 20 -30 L 20 10 C 20 10 20.08929 50 0 50 C -20.08929 50 -20 10 -20 10 z" stroke-linecap="round" />
</g>
</svg>