<?xml version="1.0" encoding="UTF-8" standalone="no" ?>
<!DOCTYPE svg PUBLIC "-//W3C//DTD SVG 1.1//EN" "http://www.w3.org/Graphics/SVG/1.1/DTD/svg11.dtd">
<svg xmlns="http://www.w3.org/2000/svg" xmlns:xlink="http://www.w3.org/1999/xlink" version="1.1" width="500" height="500" viewBox="0 0 500 500" xml:space="preserve">
<desc>Created with Fabric.js 5.3.0</desc>
<defs>
</defs>
<g transform="matrix(2.78449875 0 0 2.6900188889 240 248.9154384314)" id="Jmjf22jGzLjxSHkgPS6ID"  >
<path style="stroke: rgb(0,0,0); stroke-width: 0; stroke-dasharray: none; stroke-linecap: butt; stroke-dashoffset: 0; stroke-linejoin: miter; stroke-miterlimit: 4; fill: rgb(119,252,1); fill-rule: nonzero; opacity: 1;"  transform=" translate(0, 0)" d="M -40 70 L -20 90 L 40 -30 C 40 -30 39.63964 -90 0 -90 C -39.63964 -90 -40 -30 -40 -30 L 20 90 L 40 70 L -10.570790000000002 -30 C -10.570790000000002 -30 -11.052630000000002 -70 -1.7763568394002505e-15 -70 C 11.052629999999999 -70 12.060789999999999 -30 12.060789999999999 -30 z" stroke-linecap="round" />
</g>
<g transform="matrix(1 0 0 1 139.3652433425 450.1779155188)" id="21Ez66snOndzP1Jh0gYBM"  >
<path style="stroke: rgb(0,0,0); stroke-width: 1; stroke-dasharray: none; stroke-linecap: butt; stroke-dashoffset: 0; stroke-linejoin: miter; stroke-miterlimit: 4; fill: rgb(255,255,255); fill-opacity: 0; fill-rule: nonzero; opacity: 1;"  transform=" translate(0, 0)" d="M 0 0" stroke-linecap="round" />
</g>
<g transform="matrix(1 0 0 1 396.4852627841 714.0045127685)" id="4z-B0W4eanJRFx4FfAB65"  >
<path style="stroke: rgb(0,0,0); stroke-width: 1; stroke-dasharray: none; stroke-linecap: butt; stroke-dashoffset: 0; stroke-linejoin: miter; stroke-miterlimit: 4; fill: rgb(255,255,255); fill-opacity: 0; fill-rule: nonzero; opacity: 1;"  transform=" translate(-0.000005, -0.000005)" d="M -26.95312 -25.08907 L 26.95313 25.089080000000003" stroke-linecap="round" />
</g>
<g transform="matrix(1 0 0 1 201.8973442352 302.9585820167)" id="dh1OMcgT0X4Sq_aZDk0VP"  >
<path style="stroke: rgb(255,255,255); stroke-width: 1; stroke-dasharray: none; stroke-linecap: butt; stroke-dashoffset: 0; stroke-linejoin: miter; stroke-miterlimit: 4; fill: rgb(255,255,255); fill-opacity: 0; fill-rule: nonzero; opacity: 1;"  transform=" translate(0, 0)" d="M 0 0" stroke-linecap="round" />
</g>
<g transform="matrix(1 0 0 1 297.6804123711 488.4020618557)" id="FjTdbel6JTZdY_ohzcmUR"  >
<path style="stroke: rgb(255,255,255); stroke-width: 1; stroke-dasharray: none; stroke-linecap: butt; stroke-dashoffset: 0; stroke-linejoin: miter; stroke-miterlimit: 4; fill: rgb(255,255,255); fill-opacity: 0; fill-rule: nonzero; opacity: 1;"  transform=" translate(0, 0)" d="M 0 0" stroke-linecap="round" />
</g>
</svg>